<mxfile host="app.diagrams.net" modified="2021-04-19T21:49:01.302Z" agent="5.0 (Macintosh; Intel Mac OS X 10_15_6) AppleWebKit/605.1.15 (KHTML, like Gecko) Version/14.0.3 Safari/605.1.15" etag="JkqdW1XOvGvzO1TNmslw" version="14.4.8" type="github">
  <diagram id="Jm4tmzTD5VmvSeZlG58w" name="Page-1">
    <mxGraphModel dx="1262" dy="755" grid="1" gridSize="10" guides="1" tooltips="1" connect="1" arrows="1" fold="1" page="1" pageScale="1" pageWidth="850" pageHeight="1100" math="0" shadow="0">
      <root>
        <mxCell id="0" />
        <mxCell id="1" parent="0" />
        <mxCell id="py5nkk96zvFx1ynIxTmJ-2" value="" style="rounded=0;whiteSpace=wrap;html=1;" vertex="1" parent="1">
          <mxGeometry x="200" y="30" width="400" height="90" as="geometry" />
        </mxCell>
        <mxCell id="py5nkk96zvFx1ynIxTmJ-3" value="&lt;font style=&quot;font-size: 35px&quot;&gt;Component Tree&lt;/font&gt;&amp;nbsp;" style="text;html=1;strokeColor=none;fillColor=none;align=center;verticalAlign=middle;whiteSpace=wrap;rounded=0;" vertex="1" parent="1">
          <mxGeometry x="240" y="45" width="310" height="60" as="geometry" />
        </mxCell>
        <mxCell id="py5nkk96zvFx1ynIxTmJ-4" value="" style="rounded=0;whiteSpace=wrap;html=1;" vertex="1" parent="1">
          <mxGeometry x="320" y="150" width="120" height="60" as="geometry" />
        </mxCell>
        <mxCell id="py5nkk96zvFx1ynIxTmJ-5" value="&lt;font style=&quot;font-size: 21px&quot;&gt;App&lt;/font&gt;" style="text;html=1;strokeColor=none;fillColor=none;align=center;verticalAlign=middle;whiteSpace=wrap;rounded=0;" vertex="1" parent="1">
          <mxGeometry x="320" y="150" width="120" height="60" as="geometry" />
        </mxCell>
        <mxCell id="py5nkk96zvFx1ynIxTmJ-6" value="" style="rounded=0;whiteSpace=wrap;html=1;" vertex="1" parent="1">
          <mxGeometry x="60" y="230" width="120" height="60" as="geometry" />
        </mxCell>
        <mxCell id="py5nkk96zvFx1ynIxTmJ-7" value="&lt;font style=&quot;font-size: 22px&quot;&gt;NavBar&lt;/font&gt;" style="text;html=1;strokeColor=none;fillColor=none;align=center;verticalAlign=middle;whiteSpace=wrap;rounded=0;" vertex="1" parent="1">
          <mxGeometry x="60" y="230" width="120" height="60" as="geometry" />
        </mxCell>
        <mxCell id="py5nkk96zvFx1ynIxTmJ-8" value="" style="rounded=1;whiteSpace=wrap;html=1;" vertex="1" parent="1">
          <mxGeometry x="210" y="230" width="140" height="60" as="geometry" />
        </mxCell>
        <mxCell id="py5nkk96zvFx1ynIxTmJ-9" value="&lt;font style=&quot;font-size: 21px&quot;&gt;Profile&lt;/font&gt;" style="text;html=1;strokeColor=none;fillColor=none;align=center;verticalAlign=middle;whiteSpace=wrap;rounded=0;" vertex="1" parent="1">
          <mxGeometry x="210" y="230" width="140" height="60" as="geometry" />
        </mxCell>
        <mxCell id="py5nkk96zvFx1ynIxTmJ-10" value="" style="rounded=1;whiteSpace=wrap;html=1;" vertex="1" parent="1">
          <mxGeometry x="390" y="230" width="140" height="60" as="geometry" />
        </mxCell>
        <mxCell id="py5nkk96zvFx1ynIxTmJ-11" value="&lt;font style=&quot;font-size: 21px&quot;&gt;Trends&lt;/font&gt;" style="text;html=1;strokeColor=none;fillColor=none;align=center;verticalAlign=middle;whiteSpace=wrap;rounded=0;" vertex="1" parent="1">
          <mxGeometry x="390" y="230" width="140" height="60" as="geometry" />
        </mxCell>
        <mxCell id="py5nkk96zvFx1ynIxTmJ-12" value="" style="rounded=1;whiteSpace=wrap;html=1;" vertex="1" parent="1">
          <mxGeometry x="590" y="230" width="130" height="60" as="geometry" />
        </mxCell>
        <mxCell id="py5nkk96zvFx1ynIxTmJ-13" value="Feed" style="text;html=1;strokeColor=none;fillColor=none;align=center;verticalAlign=middle;whiteSpace=wrap;rounded=0;fontSize=21;" vertex="1" parent="1">
          <mxGeometry x="590" y="230" width="130" height="60" as="geometry" />
        </mxCell>
        <mxCell id="py5nkk96zvFx1ynIxTmJ-14" value="" style="rounded=1;whiteSpace=wrap;html=1;fontSize=21;" vertex="1" parent="1">
          <mxGeometry x="590" y="330" width="130" height="60" as="geometry" />
        </mxCell>
        <mxCell id="py5nkk96zvFx1ynIxTmJ-15" value="Tweet" style="text;html=1;strokeColor=none;fillColor=none;align=center;verticalAlign=middle;whiteSpace=wrap;rounded=0;fontSize=21;" vertex="1" parent="1">
          <mxGeometry x="590" y="330" width="130" height="60" as="geometry" />
        </mxCell>
        <mxCell id="py5nkk96zvFx1ynIxTmJ-16" value="" style="rounded=1;whiteSpace=wrap;html=1;fontSize=21;" vertex="1" parent="1">
          <mxGeometry x="590" y="440" width="130" height="60" as="geometry" />
        </mxCell>
        <mxCell id="py5nkk96zvFx1ynIxTmJ-17" value="Like" style="text;html=1;strokeColor=none;fillColor=none;align=center;verticalAlign=middle;whiteSpace=wrap;rounded=0;fontSize=21;" vertex="1" parent="1">
          <mxGeometry x="590" y="440" width="130" height="60" as="geometry" />
        </mxCell>
      </root>
    </mxGraphModel>
  </diagram>
</mxfile>
